<svg class="marks" width="513" height="386" viewBox="0 0 513 386" version="1.1" xmlns="http://www.w3.org/2000/svg" xmlns:xlink="http://www.w3.org/1999/xlink"><rect width="513" height="386" fill="white"></rect><g fill="none" stroke-miterlimit="10" transform="translate(72,27)"><g class="mark-group role-frame root" role="graphics-object" aria-roledescription="group mark container"><g transform="translate(0,0)"><path class="background" aria-hidden="true" d="M0.5,0.5h400v300h-400Z" stroke="#ddd"></path><g><g class="mark-group role-axis" aria-hidden="true"><g transform="translate(0.5,0.5)"><path class="background" aria-hidden="true" d="M0,0h0v0h0Z" pointer-events="none"></path><g><g class="mark-rule role-axis-grid" pointer-events="none"><line transform="translate(0,300)" x2="400" y2="0" stroke="#ddd" stroke-width="1" opacity="1"></line><line transform="translate(0,267)" x2="400" y2="0" stroke="#ddd" stroke-width="1" opacity="1"></line><line transform="translate(0,233)" x2="400" y2="0" stroke="#ddd" stroke-width="1" opacity="1"></line><line transform="translate(0,200)" x2="400" y2="0" stroke="#ddd" stroke-width="1" opacity="1"></line><line transform="translate(0,167)" x2="400" y2="0" stroke="#ddd" stroke-width="1" opacity="1"></line><line transform="translate(0,133)" x2="400" y2="0" stroke="#ddd" stroke-width="1" opacity="1"></line><line transform="translate(0,100)" x2="400" y2="0" stroke="#ddd" stroke-width="1" opacity="1"></line><line transform="translate(0,67)" x2="400" y2="0" stroke="#ddd" stroke-width="1" opacity="1"></line><line transform="translate(0,33)" x2="400" y2="0" stroke="#ddd" stroke-width="1" opacity="1"></line><line transform="translate(0,0)" x2="400" y2="0" stroke="#ddd" stroke-width="1" opacity="1"></line></g></g><path class="foreground" aria-hidden="true" d="" pointer-events="none" display="none"></path></g></g><g class="mark-group role-axis" role="graphics-symbol" aria-roledescription="axis" aria-label="X-axis titled 'hour' for a discrete scale with 24 values: hour00, hour01, hour02, hour03, hour04, ending with hour23"><g transform="translate(0.5,300.5)"><path class="background" aria-hidden="true" d="M0,0h0v0h0Z" pointer-events="none"></path><g><g class="mark-rule role-axis-tick" pointer-events="none"><line transform="translate(8,0)" x2="0" y2="5" stroke="#888" stroke-width="1" opacity="1"></line><line transform="translate(25,0)" x2="0" y2="5" stroke="#888" stroke-width="1" opacity="1"></line><line transform="translate(41,0)" x2="0" y2="5" stroke="#888" stroke-width="1" opacity="1"></line><line transform="translate(58,0)" x2="0" y2="5" stroke="#888" stroke-width="1" opacity="1"></line><line transform="translate(75,0)" x2="0" y2="5" stroke="#888" stroke-width="1" opacity="1"></line><line transform="translate(91,0)" x2="0" y2="5" stroke="#888" stroke-width="1" opacity="1"></line><line transform="translate(108,0)" x2="0" y2="5" stroke="#888" stroke-width="1" opacity="1"></line><line transform="translate(125,0)" x2="0" y2="5" stroke="#888" stroke-width="1" opacity="1"></line><line transform="translate(141,0)" x2="0" y2="5" stroke="#888" stroke-width="1" opacity="1"></line><line transform="translate(158,0)" x2="0" y2="5" stroke="#888" stroke-width="1" opacity="1"></line><line transform="translate(175,0)" x2="0" y2="5" stroke="#888" stroke-width="1" opacity="1"></line><line transform="translate(191,0)" x2="0" y2="5" stroke="#888" stroke-width="1" opacity="1"></line><line transform="translate(208,0)" x2="0" y2="5" stroke="#888" stroke-width="1" opacity="1"></line><line transform="translate(225,0)" x2="0" y2="5" stroke="#888" stroke-width="1" opacity="1"></line><line transform="translate(241,0)" x2="0" y2="5" stroke="#888" stroke-width="1" opacity="1"></line><line transform="translate(258,0)" x2="0" y2="5" stroke="#888" stroke-width="1" opacity="1"></line><line transform="translate(275,0)" x2="0" y2="5" stroke="#888" stroke-width="1" opacity="1"></line><line transform="translate(291,0)" x2="0" y2="5" stroke="#888" stroke-width="1" opacity="1"></line><line transform="translate(308,0)" x2="0" y2="5" stroke="#888" stroke-width="1" opacity="1"></line><line transform="translate(325,0)" x2="0" y2="5" stroke="#888" stroke-width="1" opacity="1"></line><line transform="translate(341,0)" x2="0" y2="5" stroke="#888" stroke-width="1" opacity="1"></line><line transform="translate(358,0)" x2="0" y2="5" stroke="#888" stroke-width="1" opacity="1"></line><line transform="translate(375,0)" x2="0" y2="5" stroke="#888" stroke-width="1" opacity="1"></line><line transform="translate(391,0)" x2="0" y2="5" stroke="#888" stroke-width="1" opacity="1"></line></g><g class="mark-text role-axis-label" pointer-events="none"><text text-anchor="end" transform="translate(7.833333333333343,7) rotate(270) translate(0,3)" font-family="sans-serif" font-size="10px" fill="#000" opacity="1">hour00</text><text text-anchor="end" transform="translate(24.50000000000001,7) rotate(270) translate(0,3)" font-family="sans-serif" font-size="10px" fill="#000" opacity="1">hour01</text><text text-anchor="end" transform="translate(41.16666666666668,7) rotate(270) translate(0,3)" font-family="sans-serif" font-size="10px" fill="#000" opacity="1">hour02</text><text text-anchor="end" transform="translate(57.83333333333334,7) rotate(270) translate(0,3)" font-family="sans-serif" font-size="10px" fill="#000" opacity="1">hour03</text><text text-anchor="end" transform="translate(74.50000000000001,7) rotate(270) translate(0,3)" font-family="sans-serif" font-size="10px" fill="#000" opacity="1">hour04</text><text text-anchor="end" transform="translate(91.16666666666669,7) rotate(270) translate(0,3)" font-family="sans-serif" font-size="10px" fill="#000" opacity="1">hour05</text><text text-anchor="end" transform="translate(107.83333333333334,7) rotate(270) translate(0,3)" font-family="sans-serif" font-size="10px" fill="#000" opacity="1">hour06</text><text text-anchor="end" transform="translate(124.50000000000001,7) rotate(270) translate(0,3)" font-family="sans-serif" font-size="10px" fill="#000" opacity="1">hour07</text><text text-anchor="end" transform="translate(141.16666666666669,7) rotate(270) translate(0,3)" font-family="sans-serif" font-size="10px" fill="#000" opacity="1">hour08</text><text text-anchor="end" transform="translate(157.83333333333334,7) rotate(270) translate(0,3)" font-family="sans-serif" font-size="10px" fill="#000" opacity="1">hour09</text><text text-anchor="end" transform="translate(174.50000000000003,7) rotate(270) translate(0,3)" font-family="sans-serif" font-size="10px" fill="#000" opacity="1">hour10</text><text text-anchor="end" transform="translate(191.16666666666669,7) rotate(270) translate(0,3)" font-family="sans-serif" font-size="10px" fill="#000" opacity="1">hour11</text><text text-anchor="end" transform="translate(207.83333333333334,7) rotate(270) translate(0,3)" font-family="sans-serif" font-size="10px" fill="#000" opacity="1">hour12</text><text text-anchor="end" transform="translate(224.50000000000003,7) rotate(270) translate(0,3)" font-family="sans-serif" font-size="10px" fill="#000" opacity="1">hour13</text><text text-anchor="end" transform="translate(241.16666666666669,7) rotate(270) translate(0,3)" font-family="sans-serif" font-size="10px" fill="#000" opacity="1">hour14</text><text text-anchor="end" transform="translate(257.83333333333337,7) rotate(270) translate(0,3)" font-family="sans-serif" font-size="10px" fill="#000" opacity="1">hour15</text><text text-anchor="end" transform="translate(274.5,7) rotate(270) translate(0,3)" font-family="sans-serif" font-size="10px" fill="#000" opacity="1">hour16</text><text text-anchor="end" transform="translate(291.16666666666674,7) rotate(270) translate(0,3)" font-family="sans-serif" font-size="10px" fill="#000" opacity="1">hour17</text><text text-anchor="end" transform="translate(307.83333333333337,7) rotate(270) translate(0,3)" font-family="sans-serif" font-size="10px" fill="#000" opacity="1">hour18</text><text text-anchor="end" transform="translate(324.5,7) rotate(270) translate(0,3)" font-family="sans-serif" font-size="10px" fill="#000" opacity="1">hour19</text><text text-anchor="end" transform="translate(341.16666666666674,7) rotate(270) translate(0,3)" font-family="sans-serif" font-size="10px" fill="#000" opacity="1">hour20</text><text text-anchor="end" transform="translate(357.83333333333337,7) rotate(270) translate(0,3)" font-family="sans-serif" font-size="10px" fill="#000" opacity="1">hour21</text><text text-anchor="end" transform="translate(374.5,7) rotate(270) translate(0,3)" font-family="sans-serif" font-size="10px" fill="#000" opacity="1">hour22</text><text text-anchor="end" transform="translate(391.16666666666674,7) rotate(270) translate(0,3)" font-family="sans-serif" font-size="10px" fill="#000" opacity="1">hour23</text></g><g class="mark-rule role-axis-domain" pointer-events="none"><line transform="translate(0,0)" x2="400" y2="0" stroke="#888" stroke-width="1" opacity="1"></line></g><g class="mark-text role-axis-title" pointer-events="none"><text text-anchor="middle" transform="translate(200,51.1376953125)" font-family="sans-serif" font-size="11px" font-weight="bold" fill="#000" opacity="1">hour</text></g></g><path class="foreground" aria-hidden="true" d="" pointer-events="none" display="none"></path></g></g><g class="mark-group role-axis" role="graphics-symbol" aria-roledescription="axis" aria-label="Y-axis titled 'visits' for a linear scale with values from 0 to 1,800,000"><g transform="translate(0.5,0.5)"><path class="background" aria-hidden="true" d="M0,0h0v0h0Z" pointer-events="none"></path><g><g class="mark-rule role-axis-tick" pointer-events="none"><line transform="translate(0,300)" x2="-5" y2="0" stroke="#888" stroke-width="1" opacity="1"></line><line transform="translate(0,267)" x2="-5" y2="0" stroke="#888" stroke-width="1" opacity="1"></line><line transform="translate(0,233)" x2="-5" y2="0" stroke="#888" stroke-width="1" opacity="1"></line><line transform="translate(0,200)" x2="-5" y2="0" stroke="#888" stroke-width="1" opacity="1"></line><line transform="translate(0,167)" x2="-5" y2="0" stroke="#888" stroke-width="1" opacity="1"></line><line transform="translate(0,133)" x2="-5" y2="0" stroke="#888" stroke-width="1" opacity="1"></line><line transform="translate(0,100)" x2="-5" y2="0" stroke="#888" stroke-width="1" opacity="1"></line><line transform="translate(0,67)" x2="-5" y2="0" stroke="#888" stroke-width="1" opacity="1"></line><line transform="translate(0,33)" x2="-5" y2="0" stroke="#888" stroke-width="1" opacity="1"></line><line transform="translate(0,0)" x2="-5" y2="0" stroke="#888" stroke-width="1" opacity="1"></line></g><g class="mark-text role-axis-label" pointer-events="none"><text text-anchor="end" transform="translate(-7,303)" font-family="sans-serif" font-size="10px" fill="#000" opacity="1">0</text><text text-anchor="end" transform="translate(-7,269.66666666666663)" font-family="sans-serif" font-size="10px" fill="#000" opacity="1">200,000</text><text text-anchor="end" transform="translate(-7,236.33333333333334)" font-family="sans-serif" font-size="10px" fill="#000" opacity="1">400,000</text><text text-anchor="end" transform="translate(-7,203.00000000000003)" font-family="sans-serif" font-size="10px" fill="#000" opacity="1">600,000</text><text text-anchor="end" transform="translate(-7,169.66666666666669)" font-family="sans-serif" font-size="10px" fill="#000" opacity="1">800,000</text><text text-anchor="end" transform="translate(-7,136.33333333333331)" font-family="sans-serif" font-size="10px" fill="#000" opacity="1">1,000,000</text><text text-anchor="end" transform="translate(-7,103.00000000000001)" font-family="sans-serif" font-size="10px" fill="#000" opacity="1">1,200,000</text><text text-anchor="end" transform="translate(-7,69.66666666666666)" font-family="sans-serif" font-size="10px" fill="#000" opacity="1">1,400,000</text><text text-anchor="end" transform="translate(-7,36.33333333333335)" font-family="sans-serif" font-size="10px" fill="#000" opacity="1">1,600,000</text><text text-anchor="end" transform="translate(-7,3)" font-family="sans-serif" font-size="10px" fill="#000" opacity="1">1,800,000</text></g><g class="mark-rule role-axis-domain" pointer-events="none"><line transform="translate(0,300)" x2="0" y2="-300" stroke="#888" stroke-width="1" opacity="1"></line></g><g class="mark-text role-axis-title" pointer-events="none"><text text-anchor="middle" transform="translate(-55.4873046875,150) rotate(-90) translate(0,-2)" font-family="sans-serif" font-size="11px" font-weight="bold" fill="#000" opacity="1">visits</text></g></g><path class="foreground" aria-hidden="true" d="" pointer-events="none" display="none"></path></g></g><g class="mark-rect role-mark marks" role="graphics-object" aria-roledescription="rect mark container"><path aria-label="hour: hour00; visits: 715260" role="graphics-symbol" aria-roledescription="bar" d="M0.8333333333333428,180.79000000000002h15.000000000000002v119.20999999999998h-15.000000000000002Z" fill="#4c78a8" opacity="0.7"></path><path aria-label="hour: hour01; visits: 621270" role="graphics-symbol" aria-roledescription="bar" d="M17.50000000000001,196.45499999999998h15.000000000000002v103.54500000000002h-15.000000000000002Z" fill="#4c78a8" opacity="0.7"></path><path aria-label="hour: hour02; visits: 532545" role="graphics-symbol" aria-roledescription="bar" d="M34.16666666666668,211.2425h15.000000000000002v88.7575h-15.000000000000002Z" fill="#4c78a8" opacity="0.7"></path><path aria-label="hour: hour03; visits: 464880" role="graphics-symbol" aria-roledescription="bar" d="M50.83333333333334,222.52h15.000000000000002v77.47999999999999h-15.000000000000002Z" fill="#4c78a8" opacity="0.7"></path><path aria-label="hour: hour04; visits: 442650" role="graphics-symbol" aria-roledescription="bar" d="M67.50000000000001,226.225h15.000000000000002v73.775h-15.000000000000002Z" fill="#4c78a8" opacity="0.7"></path><path aria-label="hour: hour05; visits: 450840" role="graphics-symbol" aria-roledescription="bar" d="M84.16666666666669,224.86h15.000000000000002v75.13999999999999h-15.000000000000002Z" fill="#4c78a8" opacity="0.7"></path><path aria-label="hour: hour06; visits: 491010" role="graphics-symbol" aria-roledescription="bar" d="M100.83333333333334,218.165h15.000000000000002v81.83500000000001h-15.000000000000002Z" fill="#4c78a8" opacity="0.7"></path><path aria-label="hour: hour07; visits: 585000" role="graphics-symbol" aria-roledescription="bar" d="M117.50000000000001,202.5h15.000000000000002v97.5h-15.000000000000002Z" fill="#4c78a8" opacity="0.7"></path><path aria-label="hour: hour08; visits: 721110" role="graphics-symbol" aria-roledescription="bar" d="M134.16666666666669,179.81500000000003h15.000000000000002v120.18499999999997h-15.000000000000002Z" fill="#4c78a8" opacity="0.7"></path><path aria-label="hour: hour09; visits: 834990" role="graphics-symbol" aria-roledescription="bar" d="M150.83333333333334,160.835h15.000000000000002v139.165h-15.000000000000002Z" fill="#4c78a8" opacity="0.7"></path><path aria-label="hour: hour10; visits: 998205" role="graphics-symbol" aria-roledescription="bar" d="M167.50000000000003,133.6325h15.000000000000002v166.3675h-15.000000000000002Z" fill="#4c78a8" opacity="0.7"></path><path aria-label="hour: hour11; visits: 1381185" role="graphics-symbol" aria-roledescription="bar" d="M184.16666666666669,69.8025h15.000000000000002v230.1975h-15.000000000000002Z" fill="#4c78a8" opacity="0.7"></path><path aria-label="hour: hour12; visits: 1779960" role="graphics-symbol" aria-roledescription="bar" d="M200.83333333333334,3.3399999999999985h15.000000000000002v296.66h-15.000000000000002Z" fill="#4c78a8" opacity="0.7"></path><path aria-label="hour: hour13; visits: 1672515" role="graphics-symbol" aria-roledescription="bar" d="M217.50000000000003,21.24750000000001h15.000000000000002v278.7525h-15.000000000000002Z" fill="#4c78a8" opacity="0.7"></path><path aria-label="hour: hour14; visits: 1454310" role="graphics-symbol" aria-roledescription="bar" d="M234.16666666666669,57.615000000000016h15.000000000000002v242.385h-15.000000000000002Z" fill="#4c78a8" opacity="0.7"></path><path aria-label="hour: hour15; visits: 1364025" role="graphics-symbol" aria-roledescription="bar" d="M250.83333333333337,72.66250000000001h15.000000000000002v227.33749999999998h-15.000000000000002Z" fill="#4c78a8" opacity="0.7"></path><path aria-label="hour: hour16; visits: 1418040" role="graphics-symbol" aria-roledescription="bar" d="M267.5,63.66000000000002h15.000000000000002v236.33999999999997h-15.000000000000002Z" fill="#4c78a8" opacity="0.7"></path><path aria-label="hour: hour17; visits: 1678950" role="graphics-symbol" aria-roledescription="bar" d="M284.16666666666674,20.17500000000001h15.000000000000002v279.825h-15.000000000000002Z" fill="#4c78a8" opacity="0.7"></path><path aria-label="hour: hour18; visits: 1644045" role="graphics-symbol" aria-roledescription="bar" d="M300.83333333333337,25.992499999999986h15.000000000000002v274.0075h-15.000000000000002Z" fill="#4c78a8" opacity="0.7"></path><path aria-label="hour: hour19; visits: 1421550" role="graphics-symbol" aria-roledescription="bar" d="M317.5,63.07500000000002h15.000000000000002v236.92499999999998h-15.000000000000002Z" fill="#4c78a8" opacity="0.7"></path><path aria-label="hour: hour20; visits: 1416480" role="graphics-symbol" aria-roledescription="bar" d="M334.16666666666674,63.91999999999999h15.000000000000002v236.08h-15.000000000000002Z" fill="#4c78a8" opacity="0.7"></path><path aria-label="hour: hour21; visits: 1123590" role="graphics-symbol" aria-roledescription="bar" d="M350.83333333333337,112.73500000000001h15.000000000000002v187.265h-15.000000000000002Z" fill="#4c78a8" opacity="0.7"></path><path aria-label="hour: hour22; visits: 892320" role="graphics-symbol" aria-roledescription="bar" d="M367.5,151.28h15.000000000000002v148.72h-15.000000000000002Z" fill="#4c78a8" opacity="0.7"></path><path aria-label="hour: hour23; visits: 794820" role="graphics-symbol" aria-roledescription="bar" d="M384.16666666666674,167.53h15.000000000000002v132.47h-15.000000000000002Z" fill="#4c78a8" opacity="0.7"></path></g><g class="mark-group role-title"><g transform="translate(200,-22)"><path class="background" aria-hidden="true" d="M0,0h0v0h0Z" pointer-events="none"></path><g><g class="mark-text role-title-text" role="graphics-symbol" aria-roledescription="title" aria-label="Title text 'Hourly Visits to Full-Service Restaurants in Bloomington, IN in January 2019'" pointer-events="none"><text text-anchor="middle" transform="translate(0,10)" font-family="sans-serif" font-size="13px" font-weight="bold" fill="#000" opacity="1">Hourly Visits to Full-Service Restaurants in Bloomington, IN in January 2019</text></g></g><path class="foreground" aria-hidden="true" d="" pointer-events="none" display="none"></path></g></g></g><path class="foreground" aria-hidden="true" d="" display="none"></path></g></g></g></svg>