<svg class="marks" width="463" height="386" viewBox="0 0 463 386" version="1.1" xmlns="http://www.w3.org/2000/svg" xmlns:xlink="http://www.w3.org/1999/xlink"><rect width="463" height="386" fill="white"></rect><g fill="none" stroke-miterlimit="10" transform="translate(58,27)"><g class="mark-group role-frame root" role="graphics-object" aria-roledescription="group mark container"><g transform="translate(0,0)"><path class="background" aria-hidden="true" d="M0.5,0.5h400v300h-400Z" stroke="#ddd"></path><g><g class="mark-group role-axis" aria-hidden="true"><g transform="translate(0.5,0.5)"><path class="background" aria-hidden="true" d="M0,0h0v0h0Z" pointer-events="none"></path><g><g class="mark-rule role-axis-grid" pointer-events="none"><line transform="translate(0,300)" x2="400" y2="0" stroke="#ddd" stroke-width="1" opacity="1"></line><line transform="translate(0,267)" x2="400" y2="0" stroke="#ddd" stroke-width="1" opacity="1"></line><line transform="translate(0,233)" x2="400" y2="0" stroke="#ddd" stroke-width="1" opacity="1"></line><line transform="translate(0,200)" x2="400" y2="0" stroke="#ddd" stroke-width="1" opacity="1"></line><line transform="translate(0,167)" x2="400" y2="0" stroke="#ddd" stroke-width="1" opacity="1"></line><line transform="translate(0,133)" x2="400" y2="0" stroke="#ddd" stroke-width="1" opacity="1"></line><line transform="translate(0,100)" x2="400" y2="0" stroke="#ddd" stroke-width="1" opacity="1"></line><line transform="translate(0,67)" x2="400" y2="0" stroke="#ddd" stroke-width="1" opacity="1"></line><line transform="translate(0,33)" x2="400" y2="0" stroke="#ddd" stroke-width="1" opacity="1"></line><line transform="translate(0,0)" x2="400" y2="0" stroke="#ddd" stroke-width="1" opacity="1"></line></g></g><path class="foreground" aria-hidden="true" d="" pointer-events="none" display="none"></path></g></g><g class="mark-group role-axis" role="graphics-symbol" aria-roledescription="axis" aria-label="X-axis titled 'hour' for a discrete scale with 24 values: hour00, hour01, hour02, hour03, hour04, ending with hour23"><g transform="translate(0.5,300.5)"><path class="background" aria-hidden="true" d="M0,0h0v0h0Z" pointer-events="none"></path><g><g class="mark-rule role-axis-tick" pointer-events="none"><line transform="translate(8,0)" x2="0" y2="5" stroke="#888" stroke-width="1" opacity="1"></line><line transform="translate(25,0)" x2="0" y2="5" stroke="#888" stroke-width="1" opacity="1"></line><line transform="translate(41,0)" x2="0" y2="5" stroke="#888" stroke-width="1" opacity="1"></line><line transform="translate(58,0)" x2="0" y2="5" stroke="#888" stroke-width="1" opacity="1"></line><line transform="translate(75,0)" x2="0" y2="5" stroke="#888" stroke-width="1" opacity="1"></line><line transform="translate(91,0)" x2="0" y2="5" stroke="#888" stroke-width="1" opacity="1"></line><line transform="translate(108,0)" x2="0" y2="5" stroke="#888" stroke-width="1" opacity="1"></line><line transform="translate(125,0)" x2="0" y2="5" stroke="#888" stroke-width="1" opacity="1"></line><line transform="translate(141,0)" x2="0" y2="5" stroke="#888" stroke-width="1" opacity="1"></line><line transform="translate(158,0)" x2="0" y2="5" stroke="#888" stroke-width="1" opacity="1"></line><line transform="translate(175,0)" x2="0" y2="5" stroke="#888" stroke-width="1" opacity="1"></line><line transform="translate(191,0)" x2="0" y2="5" stroke="#888" stroke-width="1" opacity="1"></line><line transform="translate(208,0)" x2="0" y2="5" stroke="#888" stroke-width="1" opacity="1"></line><line transform="translate(225,0)" x2="0" y2="5" stroke="#888" stroke-width="1" opacity="1"></line><line transform="translate(241,0)" x2="0" y2="5" stroke="#888" stroke-width="1" opacity="1"></line><line transform="translate(258,0)" x2="0" y2="5" stroke="#888" stroke-width="1" opacity="1"></line><line transform="translate(275,0)" x2="0" y2="5" stroke="#888" stroke-width="1" opacity="1"></line><line transform="translate(291,0)" x2="0" y2="5" stroke="#888" stroke-width="1" opacity="1"></line><line transform="translate(308,0)" x2="0" y2="5" stroke="#888" stroke-width="1" opacity="1"></line><line transform="translate(325,0)" x2="0" y2="5" stroke="#888" stroke-width="1" opacity="1"></line><line transform="translate(341,0)" x2="0" y2="5" stroke="#888" stroke-width="1" opacity="1"></line><line transform="translate(358,0)" x2="0" y2="5" stroke="#888" stroke-width="1" opacity="1"></line><line transform="translate(375,0)" x2="0" y2="5" stroke="#888" stroke-width="1" opacity="1"></line><line transform="translate(391,0)" x2="0" y2="5" stroke="#888" stroke-width="1" opacity="1"></line></g><g class="mark-text role-axis-label" pointer-events="none"><text text-anchor="end" transform="translate(7.833333333333343,7) rotate(270) translate(0,3)" font-family="sans-serif" font-size="10px" fill="#000" opacity="1">hour00</text><text text-anchor="end" transform="translate(24.50000000000001,7) rotate(270) translate(0,3)" font-family="sans-serif" font-size="10px" fill="#000" opacity="1">hour01</text><text text-anchor="end" transform="translate(41.16666666666668,7) rotate(270) translate(0,3)" font-family="sans-serif" font-size="10px" fill="#000" opacity="1">hour02</text><text text-anchor="end" transform="translate(57.83333333333334,7) rotate(270) translate(0,3)" font-family="sans-serif" font-size="10px" fill="#000" opacity="1">hour03</text><text text-anchor="end" transform="translate(74.50000000000001,7) rotate(270) translate(0,3)" font-family="sans-serif" font-size="10px" fill="#000" opacity="1">hour04</text><text text-anchor="end" transform="translate(91.16666666666669,7) rotate(270) translate(0,3)" font-family="sans-serif" font-size="10px" fill="#000" opacity="1">hour05</text><text text-anchor="end" transform="translate(107.83333333333334,7) rotate(270) translate(0,3)" font-family="sans-serif" font-size="10px" fill="#000" opacity="1">hour06</text><text text-anchor="end" transform="translate(124.50000000000001,7) rotate(270) translate(0,3)" font-family="sans-serif" font-size="10px" fill="#000" opacity="1">hour07</text><text text-anchor="end" transform="translate(141.16666666666669,7) rotate(270) translate(0,3)" font-family="sans-serif" font-size="10px" fill="#000" opacity="1">hour08</text><text text-anchor="end" transform="translate(157.83333333333334,7) rotate(270) translate(0,3)" font-family="sans-serif" font-size="10px" fill="#000" opacity="1">hour09</text><text text-anchor="end" transform="translate(174.50000000000003,7) rotate(270) translate(0,3)" font-family="sans-serif" font-size="10px" fill="#000" opacity="1">hour10</text><text text-anchor="end" transform="translate(191.16666666666669,7) rotate(270) translate(0,3)" font-family="sans-serif" font-size="10px" fill="#000" opacity="1">hour11</text><text text-anchor="end" transform="translate(207.83333333333334,7) rotate(270) translate(0,3)" font-family="sans-serif" font-size="10px" fill="#000" opacity="1">hour12</text><text text-anchor="end" transform="translate(224.50000000000003,7) rotate(270) translate(0,3)" font-family="sans-serif" font-size="10px" fill="#000" opacity="1">hour13</text><text text-anchor="end" transform="translate(241.16666666666669,7) rotate(270) translate(0,3)" font-family="sans-serif" font-size="10px" fill="#000" opacity="1">hour14</text><text text-anchor="end" transform="translate(257.83333333333337,7) rotate(270) translate(0,3)" font-family="sans-serif" font-size="10px" fill="#000" opacity="1">hour15</text><text text-anchor="end" transform="translate(274.5,7) rotate(270) translate(0,3)" font-family="sans-serif" font-size="10px" fill="#000" opacity="1">hour16</text><text text-anchor="end" transform="translate(291.16666666666674,7) rotate(270) translate(0,3)" font-family="sans-serif" font-size="10px" fill="#000" opacity="1">hour17</text><text text-anchor="end" transform="translate(307.83333333333337,7) rotate(270) translate(0,3)" font-family="sans-serif" font-size="10px" fill="#000" opacity="1">hour18</text><text text-anchor="end" transform="translate(324.5,7) rotate(270) translate(0,3)" font-family="sans-serif" font-size="10px" fill="#000" opacity="1">hour19</text><text text-anchor="end" transform="translate(341.16666666666674,7) rotate(270) translate(0,3)" font-family="sans-serif" font-size="10px" fill="#000" opacity="1">hour20</text><text text-anchor="end" transform="translate(357.83333333333337,7) rotate(270) translate(0,3)" font-family="sans-serif" font-size="10px" fill="#000" opacity="1">hour21</text><text text-anchor="end" transform="translate(374.5,7) rotate(270) translate(0,3)" font-family="sans-serif" font-size="10px" fill="#000" opacity="1">hour22</text><text text-anchor="end" transform="translate(391.16666666666674,7) rotate(270) translate(0,3)" font-family="sans-serif" font-size="10px" fill="#000" opacity="1">hour23</text></g><g class="mark-rule role-axis-domain" pointer-events="none"><line transform="translate(0,0)" x2="400" y2="0" stroke="#888" stroke-width="1" opacity="1"></line></g><g class="mark-text role-axis-title" pointer-events="none"><text text-anchor="middle" transform="translate(200,51.1376953125)" font-family="sans-serif" font-size="11px" font-weight="bold" fill="#000" opacity="1">hour</text></g></g><path class="foreground" aria-hidden="true" d="" pointer-events="none" display="none"></path></g></g><g class="mark-group role-axis" role="graphics-symbol" aria-roledescription="axis" aria-label="Y-axis titled 'visits' for a linear scale with values from 0 to 45,000"><g transform="translate(0.5,0.5)"><path class="background" aria-hidden="true" d="M0,0h0v0h0Z" pointer-events="none"></path><g><g class="mark-rule role-axis-tick" pointer-events="none"><line transform="translate(0,300)" x2="-5" y2="0" stroke="#888" stroke-width="1" opacity="1"></line><line transform="translate(0,267)" x2="-5" y2="0" stroke="#888" stroke-width="1" opacity="1"></line><line transform="translate(0,233)" x2="-5" y2="0" stroke="#888" stroke-width="1" opacity="1"></line><line transform="translate(0,200)" x2="-5" y2="0" stroke="#888" stroke-width="1" opacity="1"></line><line transform="translate(0,167)" x2="-5" y2="0" stroke="#888" stroke-width="1" opacity="1"></line><line transform="translate(0,133)" x2="-5" y2="0" stroke="#888" stroke-width="1" opacity="1"></line><line transform="translate(0,100)" x2="-5" y2="0" stroke="#888" stroke-width="1" opacity="1"></line><line transform="translate(0,67)" x2="-5" y2="0" stroke="#888" stroke-width="1" opacity="1"></line><line transform="translate(0,33)" x2="-5" y2="0" stroke="#888" stroke-width="1" opacity="1"></line><line transform="translate(0,0)" x2="-5" y2="0" stroke="#888" stroke-width="1" opacity="1"></line></g><g class="mark-text role-axis-label" pointer-events="none"><text text-anchor="end" transform="translate(-7,303)" font-family="sans-serif" font-size="10px" fill="#000" opacity="1">0</text><text text-anchor="end" transform="translate(-7,269.66666666666663)" font-family="sans-serif" font-size="10px" fill="#000" opacity="1">5,000</text><text text-anchor="end" transform="translate(-7,236.33333333333334)" font-family="sans-serif" font-size="10px" fill="#000" opacity="1">10,000</text><text text-anchor="end" transform="translate(-7,203.00000000000003)" font-family="sans-serif" font-size="10px" fill="#000" opacity="1">15,000</text><text text-anchor="end" transform="translate(-7,169.66666666666669)" font-family="sans-serif" font-size="10px" fill="#000" opacity="1">20,000</text><text text-anchor="end" transform="translate(-7,136.33333333333331)" font-family="sans-serif" font-size="10px" fill="#000" opacity="1">25,000</text><text text-anchor="end" transform="translate(-7,103.00000000000001)" font-family="sans-serif" font-size="10px" fill="#000" opacity="1">30,000</text><text text-anchor="end" transform="translate(-7,69.66666666666666)" font-family="sans-serif" font-size="10px" fill="#000" opacity="1">35,000</text><text text-anchor="end" transform="translate(-7,36.33333333333335)" font-family="sans-serif" font-size="10px" fill="#000" opacity="1">40,000</text><text text-anchor="end" transform="translate(-7,3)" font-family="sans-serif" font-size="10px" fill="#000" opacity="1">45,000</text></g><g class="mark-rule role-axis-domain" pointer-events="none"><line transform="translate(0,300)" x2="0" y2="-300" stroke="#888" stroke-width="1" opacity="1"></line></g><g class="mark-text role-axis-title" pointer-events="none"><text text-anchor="middle" transform="translate(-41.5859375,150) rotate(-90) translate(0,-2)" font-family="sans-serif" font-size="11px" font-weight="bold" fill="#000" opacity="1">visits</text></g></g><path class="foreground" aria-hidden="true" d="" pointer-events="none" display="none"></path></g></g><g class="mark-rect role-mark marks" role="graphics-object" aria-roledescription="rect mark container"><path aria-label="hour: hour00; visits: 33735" role="graphics-symbol" aria-roledescription="bar" d="M0.8333333333333428,75.1h15.000000000000002v224.9h-15.000000000000002Z" fill="green" opacity="0.7"></path><path aria-label="hour: hour01; visits: 25350" role="graphics-symbol" aria-roledescription="bar" d="M17.50000000000001,131h15.000000000000002v169h-15.000000000000002Z" fill="green" opacity="0.7"></path><path aria-label="hour: hour02; visits: 19110" role="graphics-symbol" aria-roledescription="bar" d="M34.16666666666668,172.59999999999997h15.000000000000002v127.40000000000003h-15.000000000000002Z" fill="green" opacity="0.7"></path><path aria-label="hour: hour03; visits: 13455" role="graphics-symbol" aria-roledescription="bar" d="M50.83333333333334,210.3h15.000000000000002v89.69999999999999h-15.000000000000002Z" fill="green" opacity="0.7"></path><path aria-label="hour: hour04; visits: 9945" role="graphics-symbol" aria-roledescription="bar" d="M67.50000000000001,233.70000000000002h15.000000000000002v66.29999999999998h-15.000000000000002Z" fill="green" opacity="0.7"></path><path aria-label="hour: hour05; visits: 10920" role="graphics-symbol" aria-roledescription="bar" d="M84.16666666666669,227.2h15.000000000000002v72.80000000000001h-15.000000000000002Z" fill="green" opacity="0.7"></path><path aria-label="hour: hour06; visits: 14040" role="graphics-symbol" aria-roledescription="bar" d="M100.83333333333334,206.39999999999998h15.000000000000002v93.60000000000002h-15.000000000000002Z" fill="green" opacity="0.7"></path><path aria-label="hour: hour07; visits: 16185" role="graphics-symbol" aria-roledescription="bar" d="M117.50000000000001,192.1h15.000000000000002v107.9h-15.000000000000002Z" fill="green" opacity="0.7"></path><path aria-label="hour: hour08; visits: 19695" role="graphics-symbol" aria-roledescription="bar" d="M134.16666666666669,168.70000000000002h15.000000000000002v131.29999999999998h-15.000000000000002Z" fill="green" opacity="0.7"></path><path aria-label="hour: hour09; visits: 24180" role="graphics-symbol" aria-roledescription="bar" d="M150.83333333333334,138.8h15.000000000000002v161.2h-15.000000000000002Z" fill="green" opacity="0.7"></path><path aria-label="hour: hour10; visits: 25935" role="graphics-symbol" aria-roledescription="bar" d="M167.50000000000003,127.1h15.000000000000002v172.9h-15.000000000000002Z" fill="green" opacity="0.7"></path><path aria-label="hour: hour11; visits: 25740" role="graphics-symbol" aria-roledescription="bar" d="M184.16666666666669,128.4h15.000000000000002v171.6h-15.000000000000002Z" fill="green" opacity="0.7"></path><path aria-label="hour: hour12; visits: 30225" role="graphics-symbol" aria-roledescription="bar" d="M200.83333333333334,98.50000000000001h15.000000000000002v201.5h-15.000000000000002Z" fill="green" opacity="0.7"></path><path aria-label="hour: hour13; visits: 29055" role="graphics-symbol" aria-roledescription="bar" d="M217.50000000000003,106.29999999999998h15.000000000000002v193.70000000000002h-15.000000000000002Z" fill="green" opacity="0.7"></path><path aria-label="hour: hour14; visits: 30030" role="graphics-symbol" aria-roledescription="bar" d="M234.16666666666669,99.8h15.000000000000002v200.2h-15.000000000000002Z" fill="green" opacity="0.7"></path><path aria-label="hour: hour15; visits: 33735" role="graphics-symbol" aria-roledescription="bar" d="M250.83333333333337,75.1h15.000000000000002v224.9h-15.000000000000002Z" fill="green" opacity="0.7"></path><path aria-label="hour: hour16; visits: 37245" role="graphics-symbol" aria-roledescription="bar" d="M267.5,51.7h15.000000000000002v248.3h-15.000000000000002Z" fill="green" opacity="0.7"></path><path aria-label="hour: hour17; visits: 43680" role="graphics-symbol" aria-roledescription="bar" d="M284.16666666666674,8.799999999999997h15.000000000000002v291.2h-15.000000000000002Z" fill="green" opacity="0.7"></path><path aria-label="hour: hour18; visits: 35100" role="graphics-symbol" aria-roledescription="bar" d="M300.83333333333337,65.99999999999999h15.000000000000002v234h-15.000000000000002Z" fill="green" opacity="0.7"></path><path aria-label="hour: hour19; visits: 32370" role="graphics-symbol" aria-roledescription="bar" d="M317.5,84.19999999999999h15.000000000000002v215.8h-15.000000000000002Z" fill="green" opacity="0.7"></path><path aria-label="hour: hour20; visits: 34905" role="graphics-symbol" aria-roledescription="bar" d="M334.16666666666674,67.30000000000001h15.000000000000002v232.7h-15.000000000000002Z" fill="green" opacity="0.7"></path><path aria-label="hour: hour21; visits: 35685" role="graphics-symbol" aria-roledescription="bar" d="M350.83333333333337,62.09999999999999h15.000000000000002v237.9h-15.000000000000002Z" fill="green" opacity="0.7"></path><path aria-label="hour: hour22; visits: 40170" role="graphics-symbol" aria-roledescription="bar" d="M367.5,32.19999999999998h15.000000000000002v267.8h-15.000000000000002Z" fill="green" opacity="0.7"></path><path aria-label="hour: hour23; visits: 40560" role="graphics-symbol" aria-roledescription="bar" d="M384.16666666666674,29.600000000000005h15.000000000000002v270.4h-15.000000000000002Z" fill="green" opacity="0.7"></path></g><g class="mark-group role-title"><g transform="translate(200,-22)"><path class="background" aria-hidden="true" d="M0,0h0v0h0Z" pointer-events="none"></path><g><g class="mark-text role-title-text" role="graphics-symbol" aria-roledescription="title" aria-label="Title text 'Hourly Visits to Bars in Bloomington, IN in January 2019'" pointer-events="none"><text text-anchor="middle" transform="translate(0,10)" font-family="sans-serif" font-size="13px" font-weight="bold" fill="#000" opacity="1">Hourly Visits to Bars in Bloomington, IN in January 2019</text></g></g><path class="foreground" aria-hidden="true" d="" pointer-events="none" display="none"></path></g></g></g><path class="foreground" aria-hidden="true" d="" display="none"></path></g></g></g></svg>